<?xml version="1.0" encoding="utf-8" standalone="no"?>
<!DOCTYPE svg PUBLIC "-//W3C//DTD SVG 1.1//EN"
  "http://www.w3.org/Graphics/SVG/1.1/DTD/svg11.dtd">
<svg xmlns:xlink="http://www.w3.org/1999/xlink" width="557.821548pt" height="503.597294pt" viewBox="0 0 557.821548 503.597294" xmlns="http://www.w3.org/2000/svg" version="1.1">
 <metadata>
  <rdf:RDF xmlns:dc="http://purl.org/dc/elements/1.1/" xmlns:cc="http://creativecommons.org/ns#" xmlns:rdf="http://www.w3.org/1999/02/22-rdf-syntax-ns#">
   <cc:Work>
    <dc:type rdf:resource="http://purl.org/dc/dcmitype/StillImage"/>
    <dc:date>2025-06-14T00:55:30.759399</dc:date>
    <dc:format>image/svg+xml</dc:format>
    <dc:creator>
     <cc:Agent>
      <dc:title>Matplotlib v3.10.3, https://matplotlib.org/</dc:title>
     </cc:Agent>
    </dc:creator>
   </cc:Work>
  </rdf:RDF>
 </metadata>
 <defs>
  <style type="text/css">*{stroke-linejoin: round; stroke-linecap: butt}</style>
 </defs>
 <g id="figure_1">
  <g id="patch_1">
   <path d="M 0 503.597294 
L 557.821548 503.597294 
L 557.821548 0 
L 0 0 
L 0 503.597294 
z
" style="fill: none"/>
  </g>
  <g id="axes_1">
   <g id="patch_2">
    <path d="M 502.807173 259.597812 
C 502.807173 230.476556 497.07092 201.638467 485.926698 174.733935 
C 474.782475 147.829402 458.44701 123.381651 437.855172 102.789813 
C 417.263335 82.197975 392.815583 65.86251 365.911051 54.718287 
C 339.006518 43.574065 310.168429 37.837812 281.047173 37.837812 
C 251.925916 37.837812 223.087827 43.574065 196.183295 54.718287 
C 169.278762 65.86251 144.831011 82.197975 124.239173 102.789813 
C 103.647335 123.381651 87.31187 147.829402 76.167647 174.733935 
C 65.023425 201.638467 59.287173 230.476556 59.287173 259.597812 
C 59.287173 288.719069 65.023425 317.557158 76.167647 344.46169 
C 87.31187 371.366223 103.647335 395.813974 124.239173 416.405812 
C 144.831011 436.99765 169.278762 453.333115 196.183295 464.477338 
C 223.087827 475.62156 251.925916 481.357812 281.047173 481.357812 
C 310.168429 481.357812 339.006518 475.62156 365.911051 464.477338 
C 392.815583 453.333115 417.263335 436.99765 437.855172 416.405812 
C 458.44701 395.813974 474.782475 371.366223 485.926698 344.46169 
C 497.07092 317.557158 502.807173 288.719069 502.807173 259.597813 
M 281.047173 259.597812 
C 281.047173 259.597812 281.047173 259.597812 281.047173 259.597812 
C 281.047173 259.597812 281.047173 259.597812 281.047173 259.597812 
C 281.047173 259.597812 281.047173 259.597812 281.047173 259.597812 
C 281.047173 259.597812 281.047173 259.597812 281.047173 259.597812 
C 281.047173 259.597812 281.047173 259.597812 281.047173 259.597812 
C 281.047173 259.597812 281.047173 259.597812 281.047173 259.597812 
C 281.047173 259.597812 281.047173 259.597812 281.047173 259.597812 
C 281.047173 259.597812 281.047173 259.597812 281.047173 259.597812 
C 281.047173 259.597812 281.047173 259.597812 281.047173 259.597812 
C 281.047173 259.597812 281.047173 259.597812 281.047173 259.597812 
C 281.047173 259.597812 281.047173 259.597812 281.047173 259.597812 
C 281.047173 259.597812 281.047173 259.597812 281.047173 259.597812 
C 281.047173 259.597812 281.047173 259.597812 281.047173 259.597812 
C 281.047173 259.597812 281.047173 259.597812 281.047173 259.597812 
C 281.047173 259.597812 281.047173 259.597812 281.047173 259.597812 
C 281.047173 259.597812 281.047173 259.597812 281.047173 259.597812 
L 281.047173 259.597812 
z
" style="fill: none"/>
   </g>
   <g id="patch_3">
    <path d="M 422.551173 259.597812 
L 281.047173 259.597812 
L 281.047173 259.597812 
L 224.661924 300.564093 
L 281.047173 259.597812 
z
" clip-path="url(#pcffa54fa2b)" style="fill: #9be9a8; opacity: 0.5; stroke: #9be9a8; stroke-linejoin: miter"/>
   </g>
   <g id="PathCollection_1">
    <defs>
     <path id="m9e21884abd" d="M 0 3.535534 
C 0.937635 3.535534 1.836992 3.163008 2.5 2.5 
C 3.163008 1.836992 3.535534 0.937635 3.535534 0 
C 3.535534 -0.937635 3.163008 -1.836992 2.5 -2.5 
C 1.836992 -3.163008 0.937635 -3.535534 0 -3.535534 
C -0.937635 -3.535534 -1.836992 -3.163008 -2.5 -2.5 
C -3.163008 -1.836992 -3.535534 -0.937635 -3.535534 0 
C -3.535534 0.937635 -3.163008 1.836992 -2.5 2.5 
C -1.836992 3.163008 -0.937635 3.535534 0 3.535534 
z
" style="stroke: #40c463"/>
    </defs>
    <g clip-path="url(#pcffa54fa2b)">
     <use xlink:href="#m9e21884abd" x="422.551173" y="259.597812" style="fill: #40c463; stroke: #40c463"/>
    </g>
   </g>
   <g id="PathCollection_2">
    <g clip-path="url(#pcffa54fa2b)">
     <use xlink:href="#m9e21884abd" x="281.047173" y="259.597812" style="fill: #40c463; stroke: #40c463"/>
    </g>
   </g>
   <g id="PathCollection_3">
    <g clip-path="url(#pcffa54fa2b)">
     <use xlink:href="#m9e21884abd" x="281.047173" y="259.597812" style="fill: #40c463; stroke: #40c463"/>
    </g>
   </g>
   <g id="PathCollection_4">
    <g clip-path="url(#pcffa54fa2b)">
     <use xlink:href="#m9e21884abd" x="224.661924" y="300.564093" style="fill: #40c463; stroke: #40c463"/>
    </g>
   </g>
   <g id="PathCollection_5">
    <g clip-path="url(#pcffa54fa2b)">
     <use xlink:href="#m9e21884abd" x="281.047173" y="259.597812" style="fill: #40c463; stroke: #40c463"/>
    </g>
   </g>
   <g id="matplotlib.axis_1"/>
   <g id="matplotlib.axis_2"/>
   <g id="line2d_1">
    <path d="M 333.847173 259.597812 
L 297.36327 209.382028 
L 238.331075 228.562751 
L 238.331075 290.632874 
L 297.36327 309.813597 
L 333.847173 259.597812 
" clip-path="url(#pcffa54fa2b)" style="fill: none; stroke: #ebedf0; stroke-width: 0.5; stroke-linecap: square"/>
   </g>
   <g id="line2d_2">
    <path d="M 386.647173 259.597812 
L 313.679367 159.166244 
L 195.614978 197.52769 
L 195.614978 321.667935 
L 313.679367 360.029381 
L 386.647173 259.597812 
" clip-path="url(#pcffa54fa2b)" style="fill: none; stroke: #ebedf0; stroke-width: 0.5; stroke-linecap: square"/>
   </g>
   <g id="line2d_3">
    <path d="M 439.447173 259.597812 
L 329.995465 108.95046 
L 152.898881 166.492629 
L 152.898881 352.702996 
L 329.995465 410.245165 
L 439.447173 259.597812 
" clip-path="url(#pcffa54fa2b)" style="fill: none; stroke: #ebedf0; stroke-width: 0.5; stroke-linecap: square"/>
   </g>
   <g id="line2d_4">
    <path d="M 492.247173 259.597812 
L 346.311562 58.734676 
L 110.182783 135.457567 
L 110.182783 383.738058 
L 346.311562 460.460949 
L 492.247173 259.597812 
" clip-path="url(#pcffa54fa2b)" style="fill: none; stroke: #ebedf0; stroke-width: 0.5; stroke-linecap: square"/>
   </g>
   <g id="line2d_5">
    <path d="M 492.247173 259.597812 
L 346.311562 58.734676 
L 110.182783 135.457567 
L 110.182783 383.738058 
L 346.311562 460.460949 
L 492.247173 259.597812 
" clip-path="url(#pcffa54fa2b)" style="fill: none; stroke: #ebedf0; stroke-width: 0.5; stroke-linecap: square"/>
   </g>
   <g id="line2d_6">
    <path d="M 281.047173 259.597812 
L 492.247173 259.597812 
" clip-path="url(#pcffa54fa2b)" style="fill: none; stroke: #ebedf0; stroke-width: 0.5; stroke-linecap: square"/>
   </g>
   <g id="line2d_7">
    <path d="M 281.047173 259.597812 
L 346.311562 58.734676 
" clip-path="url(#pcffa54fa2b)" style="fill: none; stroke: #ebedf0; stroke-width: 0.5; stroke-linecap: square"/>
   </g>
   <g id="line2d_8">
    <path d="M 281.047173 259.597812 
L 110.182783 135.457567 
" clip-path="url(#pcffa54fa2b)" style="fill: none; stroke: #ebedf0; stroke-width: 0.5; stroke-linecap: square"/>
   </g>
   <g id="line2d_9">
    <path d="M 281.047173 259.597812 
L 110.182783 383.738058 
" clip-path="url(#pcffa54fa2b)" style="fill: none; stroke: #ebedf0; stroke-width: 0.5; stroke-linecap: square"/>
   </g>
   <g id="line2d_10">
    <path d="M 281.047173 259.597812 
L 346.311562 460.460949 
" clip-path="url(#pcffa54fa2b)" style="fill: none; stroke: #ebedf0; stroke-width: 0.5; stroke-linecap: square"/>
   </g>
   <g id="line2d_11">
    <path d="M 422.551173 259.597812 
L 281.047173 259.597812 
L 281.047173 259.597812 
L 224.661924 300.564093 
L 281.047173 259.597812 
L 422.551173 259.597812 
" clip-path="url(#pcffa54fa2b)" style="fill: none; stroke: #40c463; stroke-width: 2; stroke-linecap: square"/>
   </g>
   <g id="patch_4">
    <path d="M 502.807173 259.597812 
C 502.807173 230.476556 497.07092 201.638467 485.926698 174.733935 
C 474.782475 147.829402 458.44701 123.381651 437.855172 102.789813 
C 417.263335 82.197975 392.815583 65.86251 365.911051 54.718287 
C 339.006518 43.574065 310.168429 37.837812 281.047173 37.837812 
C 251.925916 37.837812 223.087827 43.574065 196.183295 54.718287 
C 169.278762 65.86251 144.831011 82.197975 124.239173 102.789813 
C 103.647335 123.381651 87.31187 147.829402 76.167647 174.733935 
C 65.023425 201.638467 59.287173 230.476556 59.287173 259.597812 
C 59.287173 288.719069 65.023425 317.557158 76.167647 344.46169 
C 87.31187 371.366223 103.647335 395.813974 124.239173 416.405812 
C 144.831011 436.99765 169.278762 453.333115 196.183295 464.477338 
C 223.087827 475.62156 251.925916 481.357812 281.047173 481.357812 
C 310.168429 481.357812 339.006518 475.62156 365.911051 464.477338 
C 392.815583 453.333115 417.263335 436.99765 437.855172 416.405812 
C 458.44701 395.813974 474.782475 371.366223 485.926698 344.46169 
C 497.07092 317.557158 502.807173 288.719069 502.807173 259.597812 
" style="fill: none; stroke: #000000; stroke-width: 0.8; stroke-linejoin: miter; stroke-linecap: square"/>
   </g>
   <g id="text_1">
    <!-- Commits -->
    <g transform="translate(497.232798 262.909062) scale(0.12 -0.12)">
     <defs>
      <path id="DejaVuSans-43" d="M 4122 4306 
L 4122 3641 
Q 3803 3938 3442 4084 
Q 3081 4231 2675 4231 
Q 1875 4231 1450 3742 
Q 1025 3253 1025 2328 
Q 1025 1406 1450 917 
Q 1875 428 2675 428 
Q 3081 428 3442 575 
Q 3803 722 4122 1019 
L 4122 359 
Q 3791 134 3420 21 
Q 3050 -91 2638 -91 
Q 1578 -91 968 557 
Q 359 1206 359 2328 
Q 359 3453 968 4101 
Q 1578 4750 2638 4750 
Q 3056 4750 3426 4639 
Q 3797 4528 4122 4306 
z
" transform="scale(0.015625)"/>
      <path id="DejaVuSans-6f" d="M 1959 3097 
Q 1497 3097 1228 2736 
Q 959 2375 959 1747 
Q 959 1119 1226 758 
Q 1494 397 1959 397 
Q 2419 397 2687 759 
Q 2956 1122 2956 1747 
Q 2956 2369 2687 2733 
Q 2419 3097 1959 3097 
z
M 1959 3584 
Q 2709 3584 3137 3096 
Q 3566 2609 3566 1747 
Q 3566 888 3137 398 
Q 2709 -91 1959 -91 
Q 1206 -91 779 398 
Q 353 888 353 1747 
Q 353 2609 779 3096 
Q 1206 3584 1959 3584 
z
" transform="scale(0.015625)"/>
      <path id="DejaVuSans-6d" d="M 3328 2828 
Q 3544 3216 3844 3400 
Q 4144 3584 4550 3584 
Q 5097 3584 5394 3201 
Q 5691 2819 5691 2113 
L 5691 0 
L 5113 0 
L 5113 2094 
Q 5113 2597 4934 2840 
Q 4756 3084 4391 3084 
Q 3944 3084 3684 2787 
Q 3425 2491 3425 1978 
L 3425 0 
L 2847 0 
L 2847 2094 
Q 2847 2600 2669 2842 
Q 2491 3084 2119 3084 
Q 1678 3084 1418 2786 
Q 1159 2488 1159 1978 
L 1159 0 
L 581 0 
L 581 3500 
L 1159 3500 
L 1159 2956 
Q 1356 3278 1631 3431 
Q 1906 3584 2284 3584 
Q 2666 3584 2933 3390 
Q 3200 3197 3328 2828 
z
" transform="scale(0.015625)"/>
      <path id="DejaVuSans-69" d="M 603 3500 
L 1178 3500 
L 1178 0 
L 603 0 
L 603 3500 
z
M 603 4863 
L 1178 4863 
L 1178 4134 
L 603 4134 
L 603 4863 
z
" transform="scale(0.015625)"/>
      <path id="DejaVuSans-74" d="M 1172 4494 
L 1172 3500 
L 2356 3500 
L 2356 3053 
L 1172 3053 
L 1172 1153 
Q 1172 725 1289 603 
Q 1406 481 1766 481 
L 2356 481 
L 2356 0 
L 1766 0 
Q 1100 0 847 248 
Q 594 497 594 1153 
L 594 3053 
L 172 3053 
L 172 3500 
L 594 3500 
L 594 4494 
L 1172 4494 
z
" transform="scale(0.015625)"/>
      <path id="DejaVuSans-73" d="M 2834 3397 
L 2834 2853 
Q 2591 2978 2328 3040 
Q 2066 3103 1784 3103 
Q 1356 3103 1142 2972 
Q 928 2841 928 2578 
Q 928 2378 1081 2264 
Q 1234 2150 1697 2047 
L 1894 2003 
Q 2506 1872 2764 1633 
Q 3022 1394 3022 966 
Q 3022 478 2636 193 
Q 2250 -91 1575 -91 
Q 1294 -91 989 -36 
Q 684 19 347 128 
L 347 722 
Q 666 556 975 473 
Q 1284 391 1588 391 
Q 1994 391 2212 530 
Q 2431 669 2431 922 
Q 2431 1156 2273 1281 
Q 2116 1406 1581 1522 
L 1381 1569 
Q 847 1681 609 1914 
Q 372 2147 372 2553 
Q 372 3047 722 3315 
Q 1072 3584 1716 3584 
Q 2034 3584 2315 3537 
Q 2597 3491 2834 3397 
z
" transform="scale(0.015625)"/>
     </defs>
     <use xlink:href="#DejaVuSans-43"/>
     <use xlink:href="#DejaVuSans-6f" transform="translate(69.824219 0)"/>
     <use xlink:href="#DejaVuSans-6d" transform="translate(131.005859 0)"/>
     <use xlink:href="#DejaVuSans-6d" transform="translate(228.417969 0)"/>
     <use xlink:href="#DejaVuSans-69" transform="translate(325.830078 0)"/>
     <use xlink:href="#DejaVuSans-74" transform="translate(353.613281 0)"/>
     <use xlink:href="#DejaVuSans-73" transform="translate(392.822266 0)"/>
    </g>
   </g>
   <g id="text_2">
    <!-- 67% -->
    <g transform="translate(400.023204 262.357187) scale(0.1 -0.1)">
     <defs>
      <path id="DejaVuSans-Bold-36" d="M 2316 2303 
Q 2000 2303 1842 2098 
Q 1684 1894 1684 1484 
Q 1684 1075 1842 870 
Q 2000 666 2316 666 
Q 2634 666 2792 870 
Q 2950 1075 2950 1484 
Q 2950 1894 2792 2098 
Q 2634 2303 2316 2303 
z
M 3803 4544 
L 3803 3681 
Q 3506 3822 3243 3889 
Q 2981 3956 2731 3956 
Q 2194 3956 1894 3657 
Q 1594 3359 1544 2772 
Q 1750 2925 1990 3001 
Q 2231 3078 2516 3078 
Q 3231 3078 3670 2659 
Q 4109 2241 4109 1563 
Q 4109 813 3618 361 
Q 3128 -91 2303 -91 
Q 1394 -91 895 523 
Q 397 1138 397 2266 
Q 397 3422 980 4083 
Q 1563 4744 2578 4744 
Q 2900 4744 3203 4694 
Q 3506 4644 3803 4544 
z
" transform="scale(0.015625)"/>
      <path id="DejaVuSans-Bold-37" d="M 428 4666 
L 3944 4666 
L 3944 3988 
L 2125 0 
L 953 0 
L 2675 3781 
L 428 3781 
L 428 4666 
z
" transform="scale(0.015625)"/>
      <path id="DejaVuSans-Bold-25" d="M 4959 1925 
Q 4738 1925 4616 1733 
Q 4494 1541 4494 1184 
Q 4494 825 4614 633 
Q 4734 441 4959 441 
Q 5184 441 5303 633 
Q 5422 825 5422 1184 
Q 5422 1541 5301 1733 
Q 5181 1925 4959 1925 
z
M 4959 2450 
Q 5541 2450 5875 2112 
Q 6209 1775 6209 1184 
Q 6209 594 5875 251 
Q 5541 -91 4959 -91 
Q 4378 -91 4042 251 
Q 3706 594 3706 1184 
Q 3706 1772 4042 2111 
Q 4378 2450 4959 2450 
z
M 2094 -91 
L 1403 -91 
L 4319 4750 
L 5013 4750 
L 2094 -91 
z
M 1453 4750 
Q 2034 4750 2367 4411 
Q 2700 4072 2700 3481 
Q 2700 2891 2367 2550 
Q 2034 2209 1453 2209 
Q 872 2209 539 2550 
Q 206 2891 206 3481 
Q 206 4072 539 4411 
Q 872 4750 1453 4750 
z
M 1453 4225 
Q 1228 4225 1106 4031 
Q 984 3838 984 3481 
Q 984 3122 1106 2926 
Q 1228 2731 1453 2731 
Q 1678 2731 1798 2926 
Q 1919 3122 1919 3481 
Q 1919 3838 1797 4031 
Q 1675 4225 1453 4225 
z
" transform="scale(0.015625)"/>
     </defs>
     <use xlink:href="#DejaVuSans-Bold-36"/>
     <use xlink:href="#DejaVuSans-Bold-37" transform="translate(69.580078 0)"/>
     <use xlink:href="#DejaVuSans-Bold-25" transform="translate(139.160156 0)"/>
    </g>
   </g>
   <g id="text_3">
    <!-- Pull Requests -->
    <g transform="translate(356.10122 31.916456) scale(0.12 -0.12)">
     <defs>
      <path id="DejaVuSans-50" d="M 1259 4147 
L 1259 2394 
L 2053 2394 
Q 2494 2394 2734 2622 
Q 2975 2850 2975 3272 
Q 2975 3691 2734 3919 
Q 2494 4147 2053 4147 
L 1259 4147 
z
M 628 4666 
L 2053 4666 
Q 2838 4666 3239 4311 
Q 3641 3956 3641 3272 
Q 3641 2581 3239 2228 
Q 2838 1875 2053 1875 
L 1259 1875 
L 1259 0 
L 628 0 
L 628 4666 
z
" transform="scale(0.015625)"/>
      <path id="DejaVuSans-75" d="M 544 1381 
L 544 3500 
L 1119 3500 
L 1119 1403 
Q 1119 906 1312 657 
Q 1506 409 1894 409 
Q 2359 409 2629 706 
Q 2900 1003 2900 1516 
L 2900 3500 
L 3475 3500 
L 3475 0 
L 2900 0 
L 2900 538 
Q 2691 219 2414 64 
Q 2138 -91 1772 -91 
Q 1169 -91 856 284 
Q 544 659 544 1381 
z
M 1991 3584 
L 1991 3584 
z
" transform="scale(0.015625)"/>
      <path id="DejaVuSans-6c" d="M 603 4863 
L 1178 4863 
L 1178 0 
L 603 0 
L 603 4863 
z
" transform="scale(0.015625)"/>
      <path id="DejaVuSans-20" transform="scale(0.015625)"/>
      <path id="DejaVuSans-52" d="M 2841 2188 
Q 3044 2119 3236 1894 
Q 3428 1669 3622 1275 
L 4263 0 
L 3584 0 
L 2988 1197 
Q 2756 1666 2539 1819 
Q 2322 1972 1947 1972 
L 1259 1972 
L 1259 0 
L 628 0 
L 628 4666 
L 2053 4666 
Q 2853 4666 3247 4331 
Q 3641 3997 3641 3322 
Q 3641 2881 3436 2590 
Q 3231 2300 2841 2188 
z
M 1259 4147 
L 1259 2491 
L 2053 2491 
Q 2509 2491 2742 2702 
Q 2975 2913 2975 3322 
Q 2975 3731 2742 3939 
Q 2509 4147 2053 4147 
L 1259 4147 
z
" transform="scale(0.015625)"/>
      <path id="DejaVuSans-65" d="M 3597 1894 
L 3597 1613 
L 953 1613 
Q 991 1019 1311 708 
Q 1631 397 2203 397 
Q 2534 397 2845 478 
Q 3156 559 3463 722 
L 3463 178 
Q 3153 47 2828 -22 
Q 2503 -91 2169 -91 
Q 1331 -91 842 396 
Q 353 884 353 1716 
Q 353 2575 817 3079 
Q 1281 3584 2069 3584 
Q 2775 3584 3186 3129 
Q 3597 2675 3597 1894 
z
M 3022 2063 
Q 3016 2534 2758 2815 
Q 2500 3097 2075 3097 
Q 1594 3097 1305 2825 
Q 1016 2553 972 2059 
L 3022 2063 
z
" transform="scale(0.015625)"/>
      <path id="DejaVuSans-71" d="M 947 1747 
Q 947 1113 1208 752 
Q 1469 391 1925 391 
Q 2381 391 2643 752 
Q 2906 1113 2906 1747 
Q 2906 2381 2643 2742 
Q 2381 3103 1925 3103 
Q 1469 3103 1208 2742 
Q 947 2381 947 1747 
z
M 2906 525 
Q 2725 213 2448 61 
Q 2172 -91 1784 -91 
Q 1150 -91 751 415 
Q 353 922 353 1747 
Q 353 2572 751 3078 
Q 1150 3584 1784 3584 
Q 2172 3584 2448 3432 
Q 2725 3281 2906 2969 
L 2906 3500 
L 3481 3500 
L 3481 -1331 
L 2906 -1331 
L 2906 525 
z
" transform="scale(0.015625)"/>
     </defs>
     <use xlink:href="#DejaVuSans-50"/>
     <use xlink:href="#DejaVuSans-75" transform="translate(58.552734 0)"/>
     <use xlink:href="#DejaVuSans-6c" transform="translate(121.931641 0)"/>
     <use xlink:href="#DejaVuSans-6c" transform="translate(149.714844 0)"/>
     <use xlink:href="#DejaVuSans-20" transform="translate(177.498047 0)"/>
     <use xlink:href="#DejaVuSans-52" transform="translate(209.285156 0)"/>
     <use xlink:href="#DejaVuSans-65" transform="translate(274.267578 0)"/>
     <use xlink:href="#DejaVuSans-71" transform="translate(335.791016 0)"/>
     <use xlink:href="#DejaVuSans-75" transform="translate(399.267578 0)"/>
     <use xlink:href="#DejaVuSans-65" transform="translate(462.646484 0)"/>
     <use xlink:href="#DejaVuSans-73" transform="translate(524.169922 0)"/>
     <use xlink:href="#DejaVuSans-74" transform="translate(576.269531 0)"/>
     <use xlink:href="#DejaVuSans-73" transform="translate(615.478516 0)"/>
    </g>
   </g>
   <g id="text_4">
    <g id="text_5">
     <!-- Issues -->
     <g transform="translate(84.553125 120.14778) scale(0.12 -0.12)">
      <defs>
       <path id="DejaVuSans-49" d="M 628 4666 
L 1259 4666 
L 1259 0 
L 628 0 
L 628 4666 
z
" transform="scale(0.015625)"/>
      </defs>
      <use xlink:href="#DejaVuSans-49"/>
      <use xlink:href="#DejaVuSans-73" transform="translate(29.492188 0)"/>
      <use xlink:href="#DejaVuSans-73" transform="translate(81.591797 0)"/>
      <use xlink:href="#DejaVuSans-75" transform="translate(133.691406 0)"/>
      <use xlink:href="#DejaVuSans-65" transform="translate(197.070312 0)"/>
      <use xlink:href="#DejaVuSans-73" transform="translate(258.59375 0)"/>
     </g>
    </g>
    <g id="text_6">
     <g id="text_7">
      <!-- Code Review -->
      <g transform="translate(7.2 405.670345) scale(0.12 -0.12)">
       <defs>
        <path id="DejaVuSans-64" d="M 2906 2969 
L 2906 4863 
L 3481 4863 
L 3481 0 
L 2906 0 
L 2906 525 
Q 2725 213 2448 61 
Q 2172 -91 1784 -91 
Q 1150 -91 751 415 
Q 353 922 353 1747 
Q 353 2572 751 3078 
Q 1150 3584 1784 3584 
Q 2172 3584 2448 3432 
Q 2725 3281 2906 2969 
z
M 947 1747 
Q 947 1113 1208 752 
Q 1469 391 1925 391 
Q 2381 391 2643 752 
Q 2906 1113 2906 1747 
Q 2906 2381 2643 2742 
Q 2381 3103 1925 3103 
Q 1469 3103 1208 2742 
Q 947 2381 947 1747 
z
" transform="scale(0.015625)"/>
        <path id="DejaVuSans-76" d="M 191 3500 
L 800 3500 
L 1894 563 
L 2988 3500 
L 3597 3500 
L 2284 0 
L 1503 0 
L 191 3500 
z
" transform="scale(0.015625)"/>
        <path id="DejaVuSans-77" d="M 269 3500 
L 844 3500 
L 1563 769 
L 2278 3500 
L 2956 3500 
L 3675 769 
L 4391 3500 
L 4966 3500 
L 4050 0 
L 3372 0 
L 2619 2869 
L 1863 0 
L 1184 0 
L 269 3500 
z
" transform="scale(0.015625)"/>
       </defs>
       <use xlink:href="#DejaVuSans-43"/>
       <use xlink:href="#DejaVuSans-6f" transform="translate(69.824219 0)"/>
       <use xlink:href="#DejaVuSans-64" transform="translate(131.005859 0)"/>
       <use xlink:href="#DejaVuSans-65" transform="translate(194.482422 0)"/>
       <use xlink:href="#DejaVuSans-20" transform="translate(256.005859 0)"/>
       <use xlink:href="#DejaVuSans-52" transform="translate(287.792969 0)"/>
       <use xlink:href="#DejaVuSans-65" transform="translate(352.775391 0)"/>
       <use xlink:href="#DejaVuSans-76" transform="translate(414.298828 0)"/>
       <use xlink:href="#DejaVuSans-69" transform="translate(473.478516 0)"/>
       <use xlink:href="#DejaVuSans-65" transform="translate(501.261719 0)"/>
       <use xlink:href="#DejaVuSans-77" transform="translate(562.785156 0)"/>
      </g>
     </g>
     <g id="text_8">
      <!-- 33% -->
      <g transform="translate(221.237175 297.116456) scale(0.1 -0.1)">
       <defs>
        <path id="DejaVuSans-Bold-33" d="M 2981 2516 
Q 3453 2394 3698 2092 
Q 3944 1791 3944 1325 
Q 3944 631 3412 270 
Q 2881 -91 1863 -91 
Q 1503 -91 1142 -33 
Q 781 25 428 141 
L 428 1069 
Q 766 900 1098 814 
Q 1431 728 1753 728 
Q 2231 728 2486 893 
Q 2741 1059 2741 1369 
Q 2741 1688 2480 1852 
Q 2219 2016 1709 2016 
L 1228 2016 
L 1228 2791 
L 1734 2791 
Q 2188 2791 2409 2933 
Q 2631 3075 2631 3366 
Q 2631 3634 2415 3781 
Q 2200 3928 1806 3928 
Q 1516 3928 1219 3862 
Q 922 3797 628 3669 
L 628 4550 
Q 984 4650 1334 4700 
Q 1684 4750 2022 4750 
Q 2931 4750 3382 4451 
Q 3834 4153 3834 3553 
Q 3834 3144 3618 2883 
Q 3403 2622 2981 2516 
z
" transform="scale(0.015625)"/>
       </defs>
       <use xlink:href="#DejaVuSans-Bold-33"/>
       <use xlink:href="#DejaVuSans-Bold-33" transform="translate(69.580078 0)"/>
       <use xlink:href="#DejaVuSans-Bold-25" transform="translate(139.160156 0)"/>
      </g>
     </g>
     <g id="text_9">
      <!-- Discussions -->
      <g transform="translate(286.038095 493.901669) scale(0.12 -0.12)">
       <defs>
        <path id="DejaVuSans-44" d="M 1259 4147 
L 1259 519 
L 2022 519 
Q 2988 519 3436 956 
Q 3884 1394 3884 2338 
Q 3884 3275 3436 3711 
Q 2988 4147 2022 4147 
L 1259 4147 
z
M 628 4666 
L 1925 4666 
Q 3281 4666 3915 4102 
Q 4550 3538 4550 2338 
Q 4550 1131 3912 565 
Q 3275 0 1925 0 
L 628 0 
L 628 4666 
z
" transform="scale(0.015625)"/>
        <path id="DejaVuSans-63" d="M 3122 3366 
L 3122 2828 
Q 2878 2963 2633 3030 
Q 2388 3097 2138 3097 
Q 1578 3097 1268 2742 
Q 959 2388 959 1747 
Q 959 1106 1268 751 
Q 1578 397 2138 397 
Q 2388 397 2633 464 
Q 2878 531 3122 666 
L 3122 134 
Q 2881 22 2623 -34 
Q 2366 -91 2075 -91 
Q 1284 -91 818 406 
Q 353 903 353 1747 
Q 353 2603 823 3093 
Q 1294 3584 2113 3584 
Q 2378 3584 2631 3529 
Q 2884 3475 3122 3366 
z
" transform="scale(0.015625)"/>
        <path id="DejaVuSans-6e" d="M 3513 2113 
L 3513 0 
L 2938 0 
L 2938 2094 
Q 2938 2591 2744 2837 
Q 2550 3084 2163 3084 
Q 1697 3084 1428 2787 
Q 1159 2491 1159 1978 
L 1159 0 
L 581 0 
L 581 3500 
L 1159 3500 
L 1159 2956 
Q 1366 3272 1645 3428 
Q 1925 3584 2291 3584 
Q 2894 3584 3203 3211 
Q 3513 2838 3513 2113 
z
" transform="scale(0.015625)"/>
       </defs>
       <use xlink:href="#DejaVuSans-44"/>
       <use xlink:href="#DejaVuSans-69" transform="translate(77.001953 0)"/>
       <use xlink:href="#DejaVuSans-73" transform="translate(104.785156 0)"/>
       <use xlink:href="#DejaVuSans-63" transform="translate(156.884766 0)"/>
       <use xlink:href="#DejaVuSans-75" transform="translate(211.865234 0)"/>
       <use xlink:href="#DejaVuSans-73" transform="translate(275.244141 0)"/>
       <use xlink:href="#DejaVuSans-73" transform="translate(327.34375 0)"/>
       <use xlink:href="#DejaVuSans-69" transform="translate(379.443359 0)"/>
       <use xlink:href="#DejaVuSans-6f" transform="translate(407.226562 0)"/>
       <use xlink:href="#DejaVuSans-6e" transform="translate(468.408203 0)"/>
       <use xlink:href="#DejaVuSans-73" transform="translate(531.787109 0)"/>
      </g>
     </g>
     <g id="text_10">
      <g id="text_11">
       <!-- GitHub Activity Overview -->
       <g transform="translate(181.75436 17.837812) scale(0.14 -0.14)">
        <defs>
         <path id="DejaVuSans-Bold-47" d="M 4781 347 
Q 4331 128 3847 18 
Q 3363 -91 2847 -91 
Q 1681 -91 1000 561 
Q 319 1213 319 2328 
Q 319 3456 1012 4103 
Q 1706 4750 2913 4750 
Q 3378 4750 3804 4662 
Q 4231 4575 4609 4403 
L 4609 3438 
Q 4219 3659 3833 3768 
Q 3447 3878 3059 3878 
Q 2341 3878 1952 3476 
Q 1563 3075 1563 2328 
Q 1563 1588 1938 1184 
Q 2313 781 3003 781 
Q 3191 781 3352 804 
Q 3513 828 3641 878 
L 3641 1784 
L 2906 1784 
L 2906 2591 
L 4781 2591 
L 4781 347 
z
" transform="scale(0.015625)"/>
         <path id="DejaVuSans-Bold-69" d="M 538 3500 
L 1656 3500 
L 1656 0 
L 538 0 
L 538 3500 
z
M 538 4863 
L 1656 4863 
L 1656 3950 
L 538 3950 
L 538 4863 
z
" transform="scale(0.015625)"/>
         <path id="DejaVuSans-Bold-74" d="M 1759 4494 
L 1759 3500 
L 2913 3500 
L 2913 2700 
L 1759 2700 
L 1759 1216 
Q 1759 972 1856 886 
Q 1953 800 2241 800 
L 2816 800 
L 2816 0 
L 1856 0 
Q 1194 0 917 276 
Q 641 553 641 1216 
L 641 2700 
L 84 2700 
L 84 3500 
L 641 3500 
L 641 4494 
L 1759 4494 
z
" transform="scale(0.015625)"/>
         <path id="DejaVuSans-Bold-48" d="M 588 4666 
L 1791 4666 
L 1791 2888 
L 3566 2888 
L 3566 4666 
L 4769 4666 
L 4769 0 
L 3566 0 
L 3566 1978 
L 1791 1978 
L 1791 0 
L 588 0 
L 588 4666 
z
" transform="scale(0.015625)"/>
         <path id="DejaVuSans-Bold-75" d="M 500 1363 
L 500 3500 
L 1625 3500 
L 1625 3150 
Q 1625 2866 1622 2436 
Q 1619 2006 1619 1863 
Q 1619 1441 1641 1255 
Q 1663 1069 1716 984 
Q 1784 875 1895 815 
Q 2006 756 2150 756 
Q 2500 756 2700 1025 
Q 2900 1294 2900 1772 
L 2900 3500 
L 4019 3500 
L 4019 0 
L 2900 0 
L 2900 506 
Q 2647 200 2364 54 
Q 2081 -91 1741 -91 
Q 1134 -91 817 281 
Q 500 653 500 1363 
z
" transform="scale(0.015625)"/>
         <path id="DejaVuSans-Bold-62" d="M 2400 722 
Q 2759 722 2948 984 
Q 3138 1247 3138 1747 
Q 3138 2247 2948 2509 
Q 2759 2772 2400 2772 
Q 2041 2772 1848 2508 
Q 1656 2244 1656 1747 
Q 1656 1250 1848 986 
Q 2041 722 2400 722 
z
M 1656 2988 
Q 1888 3294 2169 3439 
Q 2450 3584 2816 3584 
Q 3463 3584 3878 3070 
Q 4294 2556 4294 1747 
Q 4294 938 3878 423 
Q 3463 -91 2816 -91 
Q 2450 -91 2169 54 
Q 1888 200 1656 506 
L 1656 0 
L 538 0 
L 538 4863 
L 1656 4863 
L 1656 2988 
z
" transform="scale(0.015625)"/>
         <path id="DejaVuSans-Bold-20" transform="scale(0.015625)"/>
         <path id="DejaVuSans-Bold-41" d="M 3419 850 
L 1538 850 
L 1241 0 
L 31 0 
L 1759 4666 
L 3194 4666 
L 4922 0 
L 3713 0 
L 3419 850 
z
M 1838 1716 
L 3116 1716 
L 2478 3572 
L 1838 1716 
z
" transform="scale(0.015625)"/>
         <path id="DejaVuSans-Bold-63" d="M 3366 3391 
L 3366 2478 
Q 3138 2634 2908 2709 
Q 2678 2784 2431 2784 
Q 1963 2784 1702 2511 
Q 1441 2238 1441 1747 
Q 1441 1256 1702 982 
Q 1963 709 2431 709 
Q 2694 709 2930 787 
Q 3166 866 3366 1019 
L 3366 103 
Q 3103 6 2833 -42 
Q 2563 -91 2291 -91 
Q 1344 -91 809 395 
Q 275 881 275 1747 
Q 275 2613 809 3098 
Q 1344 3584 2291 3584 
Q 2566 3584 2833 3536 
Q 3100 3488 3366 3391 
z
" transform="scale(0.015625)"/>
         <path id="DejaVuSans-Bold-76" d="M 97 3500 
L 1216 3500 
L 2088 1081 
L 2956 3500 
L 4078 3500 
L 2700 0 
L 1472 0 
L 97 3500 
z
" transform="scale(0.015625)"/>
         <path id="DejaVuSans-Bold-79" d="M 78 3500 
L 1197 3500 
L 2138 1125 
L 2938 3500 
L 4056 3500 
L 2584 -331 
Q 2363 -916 2067 -1148 
Q 1772 -1381 1288 -1381 
L 641 -1381 
L 641 -647 
L 991 -647 
Q 1275 -647 1404 -556 
Q 1534 -466 1606 -231 
L 1638 -134 
L 78 3500 
z
" transform="scale(0.015625)"/>
         <path id="DejaVuSans-Bold-4f" d="M 2719 3878 
Q 2169 3878 1866 3472 
Q 1563 3066 1563 2328 
Q 1563 1594 1866 1187 
Q 2169 781 2719 781 
Q 3272 781 3575 1187 
Q 3878 1594 3878 2328 
Q 3878 3066 3575 3472 
Q 3272 3878 2719 3878 
z
M 2719 4750 
Q 3844 4750 4481 4106 
Q 5119 3463 5119 2328 
Q 5119 1197 4481 553 
Q 3844 -91 2719 -91 
Q 1597 -91 958 553 
Q 319 1197 319 2328 
Q 319 3463 958 4106 
Q 1597 4750 2719 4750 
z
" transform="scale(0.015625)"/>
         <path id="DejaVuSans-Bold-65" d="M 4031 1759 
L 4031 1441 
L 1416 1441 
Q 1456 1047 1700 850 
Q 1944 653 2381 653 
Q 2734 653 3104 758 
Q 3475 863 3866 1075 
L 3866 213 
Q 3469 63 3072 -14 
Q 2675 -91 2278 -91 
Q 1328 -91 801 392 
Q 275 875 275 1747 
Q 275 2603 792 3093 
Q 1309 3584 2216 3584 
Q 3041 3584 3536 3087 
Q 4031 2591 4031 1759 
z
M 2881 2131 
Q 2881 2450 2695 2645 
Q 2509 2841 2209 2841 
Q 1884 2841 1681 2658 
Q 1478 2475 1428 2131 
L 2881 2131 
z
" transform="scale(0.015625)"/>
         <path id="DejaVuSans-Bold-72" d="M 3138 2547 
Q 2991 2616 2845 2648 
Q 2700 2681 2553 2681 
Q 2122 2681 1889 2404 
Q 1656 2128 1656 1613 
L 1656 0 
L 538 0 
L 538 3500 
L 1656 3500 
L 1656 2925 
Q 1872 3269 2151 3426 
Q 2431 3584 2822 3584 
Q 2878 3584 2943 3579 
Q 3009 3575 3134 3559 
L 3138 2547 
z
" transform="scale(0.015625)"/>
         <path id="DejaVuSans-Bold-77" d="M 225 3500 
L 1313 3500 
L 1900 1088 
L 2491 3500 
L 3425 3500 
L 4013 1113 
L 4603 3500 
L 5691 3500 
L 4769 0 
L 3547 0 
L 2956 2406 
L 2369 0 
L 1147 0 
L 225 3500 
z
" transform="scale(0.015625)"/>
        </defs>
        <use xlink:href="#DejaVuSans-Bold-47"/>
        <use xlink:href="#DejaVuSans-Bold-69" transform="translate(82.080078 0)"/>
        <use xlink:href="#DejaVuSans-Bold-74" transform="translate(116.357422 0)"/>
        <use xlink:href="#DejaVuSans-Bold-48" transform="translate(164.160156 0)"/>
        <use xlink:href="#DejaVuSans-Bold-75" transform="translate(247.851562 0)"/>
        <use xlink:href="#DejaVuSans-Bold-62" transform="translate(319.042969 0)"/>
        <use xlink:href="#DejaVuSans-Bold-20" transform="translate(390.625 0)"/>
        <use xlink:href="#DejaVuSans-Bold-41" transform="translate(425.439453 0)"/>
        <use xlink:href="#DejaVuSans-Bold-63" transform="translate(502.832031 0)"/>
        <use xlink:href="#DejaVuSans-Bold-74" transform="translate(562.109375 0)"/>
        <use xlink:href="#DejaVuSans-Bold-69" transform="translate(609.912109 0)"/>
        <use xlink:href="#DejaVuSans-Bold-76" transform="translate(644.189453 0)"/>
        <use xlink:href="#DejaVuSans-Bold-69" transform="translate(709.375 0)"/>
        <use xlink:href="#DejaVuSans-Bold-74" transform="translate(743.652344 0)"/>
        <use xlink:href="#DejaVuSans-Bold-79" transform="translate(791.455078 0)"/>
        <use xlink:href="#DejaVuSans-Bold-20" transform="translate(856.640625 0)"/>
        <use xlink:href="#DejaVuSans-Bold-4f" transform="translate(891.455078 0)"/>
        <use xlink:href="#DejaVuSans-Bold-76" transform="translate(976.464844 0)"/>
        <use xlink:href="#DejaVuSans-Bold-65" transform="translate(1041.650391 0)"/>
        <use xlink:href="#DejaVuSans-Bold-72" transform="translate(1109.472656 0)"/>
        <use xlink:href="#DejaVuSans-Bold-76" transform="translate(1158.789062 0)"/>
        <use xlink:href="#DejaVuSans-Bold-69" transform="translate(1223.974609 0)"/>
        <use xlink:href="#DejaVuSans-Bold-65" transform="translate(1258.251953 0)"/>
        <use xlink:href="#DejaVuSans-Bold-77" transform="translate(1326.074219 0)"/>
       </g>
      </g>
     </g>
    </g>
    <defs>
     <clipPath id="pcffa54fa2b">
      <path d="M 502.807173 259.597812 
C 502.807173 230.476556 497.07092 201.638467 485.926698 174.733935 
C 474.782475 147.829402 458.44701 123.381651 437.855172 102.789813 
C 417.263335 82.197975 392.815583 65.86251 365.911051 54.718287 
C 339.006518 43.574065 310.168429 37.837812 281.047173 37.837812 
C 251.925916 37.837812 223.087827 43.574065 196.183295 54.718287 
C 169.278762 65.86251 144.831011 82.197975 124.239173 102.789813 
C 103.647335 123.381651 87.31187 147.829402 76.167647 174.733935 
C 65.023425 201.638467 59.287173 230.476556 59.287173 259.597812 
C 59.287173 288.719069 65.023425 317.557158 76.167647 344.46169 
C 87.31187 371.366223 103.647335 395.813974 124.239173 416.405812 
C 144.831011 436.99765 169.278762 453.333115 196.183295 464.477338 
C 223.087827 475.62156 251.925916 481.357812 281.047173 481.357812 
C 310.168429 481.357812 339.006518 475.62156 365.911051 464.477338 
C 392.815583 453.333115 417.263335 436.99765 437.855172 416.405812 
C 458.44701 395.813974 474.782475 371.366223 485.926698 344.46169 
C 497.07092 317.557158 502.807173 288.719069 502.807173 259.597813 
M 281.047173 259.597812 
C 281.047173 259.597812 281.047173 259.597812 281.047173 259.597812 
C 281.047173 259.597812 281.047173 259.597812 281.047173 259.597812 
C 281.047173 259.597812 281.047173 259.597812 281.047173 259.597812 
C 281.047173 259.597812 281.047173 259.597812 281.047173 259.597812 
C 281.047173 259.597812 281.047173 259.597812 281.047173 259.597812 
C 281.047173 259.597812 281.047173 259.597812 281.047173 259.597812 
C 281.047173 259.597812 281.047173 259.597812 281.047173 259.597812 
C 281.047173 259.597812 281.047173 259.597812 281.047173 259.597812 
C 281.047173 259.597812 281.047173 259.597812 281.047173 259.597812 
C 281.047173 259.597812 281.047173 259.597812 281.047173 259.597812 
C 281.047173 259.597812 281.047173 259.597812 281.047173 259.597812 
C 281.047173 259.597812 281.047173 259.597812 281.047173 259.597812 
C 281.047173 259.597812 281.047173 259.597812 281.047173 259.597812 
C 281.047173 259.597812 281.047173 259.597812 281.047173 259.597812 
C 281.047173 259.597812 281.047173 259.597812 281.047173 259.597812 
C 281.047173 259.597812 281.047173 259.597812 281.047173 259.597812 
z
"/>
     </clipPath>
    </defs>
   </g>
  </g>
 </g>
</svg>
